M48
METRIC,TZ
T01C.25
T02C.5999
;LEADER: 12 
;HEADER: 
;CODE  : ASCII 
;FILE  : PARTICULATEMATTER-1-2.drl for  ... layers TOP and BOTTOM
;DESIGN: PARTICULATEMATTER.brd
;T01 Holesize 1. = 0.250000 Tolerance = +0.000000/-0.000000 PLATED MM Quantity = 51
;T02 Holesize 2. = 0.599900 Tolerance = +0.000000/-0.000000 PLATED MM Quantity = 10
%
G90
T01
X-21520Y-16160
X-29220Y-3380
X-27880Y-12600
X-22735Y-9265
X-27135Y-13615
X-22935Y-13615
X-27160Y-33320
X-7960Y-25440
X-2360Y-29920
X-2680Y-27120
X6140Y-20580
X-160Y-15480
X-1760Y-10055
X2280Y-10055
X2120Y-5705
X-1585Y-5705
X-6320Y-3040
X1960Y6480
X-420Y6480
X-3080Y6650
X-10020Y5020
X1080Y11300
X1080Y14360
X-22890Y8230
X-20880Y9400
X-7010Y5280
X-4280Y5280
X-180Y5320
X1520Y5320
X-7600Y10320
X-1480Y16520
X-15880Y6360
X-15880Y7880
X-22800Y1760
X-22800Y0
X-22800Y-1760
X-15620Y14260
X-17250Y13330
X-7980Y19700
X-17240Y18360
X-3715Y23640
X-2960Y20200
X5320Y12543
X-420Y13640
X-220Y11240
X-220Y9600
X-220Y8000
X7360Y4680
X-7440Y880
X-5840Y880
X9680Y12520
T02
X-24445Y4420
X-24445Y5690
X-24445Y6960
X-24445Y8230
X-24445Y9500
X-25715Y4420
X-25715Y5690
X-25715Y6960
X-25715Y8230
X-25715Y9500
M30
