G04 ================== begin FILE IDENTIFICATION RECORD ==================*
G04 Layout Name:  C:/Users/FEDERICO/Desktop/PAR.MA/Orcad/allegro/PARTICULATEMATTER.brd*
G04 Film Name:    PM_TOP*
G04 File Format:  Gerber RS274X*
G04 File Origin:  Cadence Allegro 17.2-P019*
G04 Origin Date:  Thu Jan 16 16:17:45 2020*
G04 *
G04 Layer:  VIA CLASS/PASTEMASK_TOP*
G04 Layer:  PIN/PASTEMASK_TOP*
G04 Layer:  PACKAGE GEOMETRY/PASTEMASK_TOP*
G04 Layer:  BOARD GEOMETRY/DESIGN_OUTLINE*
G04 *
G04 Offset:    (0.0000 0.0000)*
G04 Mirror:    No*
G04 Mode:      Positive*
G04 Rotation:  0*
G04 FullContactRelief:  No*
G04 UndefLineWidth:     0.0000*
G04 ================== end FILE IDENTIFICATION RECORD ====================*
%FSLAX25Y25*MOMM*%
%IR0*IPPOS*OFA0.00000B0.00000*MIA0B0*SFA1.00000B1.00000*%
%AMMACRO21*
4,1,4,2.4201,-2.4201,
2.4201,-1.3599,
1.3599,-1.3599,
1.3599,-2.4201,
2.4201,-2.4201,
270.*
4,1,4,2.4201,-1.16,
2.4201,-.1001,
1.3599,-.1001,
1.3599,-1.16,
2.4201,-1.16,
270.*
4,1,4,2.4201,.1001,
2.4201,1.16,
1.3599,1.16,
1.3599,.1001,
2.4201,.1001,
270.*
4,1,4,2.4201,1.3599,
2.4201,2.4201,
1.3599,2.4201,
1.3599,1.3599,
2.4201,1.3599,
270.*
4,1,4,1.16,-2.4201,
1.16,-1.3599,
.1001,-1.3599,
.1001,-2.4201,
1.16,-2.4201,
270.*
4,1,4,1.16,-1.16,
1.16,-.1001,
.1001,-.1001,
.1001,-1.16,
1.16,-1.16,
270.*
4,1,4,1.16,.1001,
1.16,1.16,
.1001,1.16,
.1001,.1001,
1.16,.1001,
270.*
4,1,4,1.16,1.3599,
1.16,2.4201,
.1001,2.4201,
.1001,1.3599,
1.16,1.3599,
270.*
4,1,4,-.1001,-2.4201,
-.1001,-1.3599,
-1.16,-1.3599,
-1.16,-2.4201,
-.1001,-2.4201,
270.*
4,1,4,-.1001,-1.16,
-.1001,-.1001,
-1.16,-.1001,
-1.16,-1.16,
-.1001,-1.16,
270.*
4,1,4,-.1001,.1001,
-.1001,1.16,
-1.16,1.16,
-1.16,.1001,
-.1001,.1001,
270.*
4,1,4,-.1001,1.3599,
-.1001,2.4201,
-1.16,2.4201,
-1.16,1.3599,
-.1001,1.3599,
270.*
4,1,4,-1.3599,-2.4201,
-1.3599,-1.3599,
-2.4201,-1.3599,
-2.4201,-2.4201,
-1.3599,-2.4201,
270.*
4,1,4,-1.3599,-1.16,
-1.3599,-.1001,
-2.4201,-.1001,
-2.4201,-1.16,
-1.3599,-1.16,
270.*
4,1,4,-1.3599,.1001,
-1.3599,1.16,
-2.4201,1.16,
-2.4201,.1001,
-1.3599,.1001,
270.*
4,1,4,-1.3599,1.3599,
-1.3599,2.4201,
-2.4201,2.4201,
-2.4201,1.3599,
-1.3599,1.3599,
270.*
%
%ADD21MACRO21*%
%ADD13R,.2301X1.35*%
%ADD20R,1.1501X.4501*%
%ADD12C,.6*%
%ADD23R,.65X1.35*%
%AMMACRO22*
4,1,44,.05,-.1901,
.05,.1901,
.049444,.197029,
.047644,.203747,
.044704,.21005,
.040715,.215747,
.035797,.220665,
.0301,.224654,
.023797,.227594,
.017079,.229394,
.01015,.23,
.0101,.23,
-.0101,.23,
-.017029,.229402,
-.02375,.227611,
-.030057,.224679,
-.035759,.220697,
-.040683,.215786,
-.044679,.210093,
-.047627,.203794,
-.049435,.197078,
-.05005,.19015,
-.05,.1901,
-.05,-.1901,
-.049444,-.197029,
-.047644,-.203747,
-.044704,-.21005,
-.040715,-.215747,
-.035797,-.220665,
-.0301,-.224654,
-.023797,-.227594,
-.017079,-.229394,
-.01015,-.23,
-.0101,-.23,
.0101,-.23,
.017029,-.229402,
.02375,-.227611,
.030057,-.224679,
.035759,-.220697,
.040683,-.215786,
.044679,-.210093,
.047627,-.203794,
.049435,-.197078,
.05005,-.19015,
.05,-.1901,
0.0*
%
%ADD22MACRO22*%
%AMMACRO26*
4,1,44,-.19,-.0504,
.1901,-.0496,
.197029,-.049092,
.203748,-.047295,
.210052,-.044359,
.215752,-.040372,
.220672,-.035456,
.224664,-.029761,
.227606,-.023459,
.229409,-.016742,
.230019,-.009814,
.23,-.0097,
.2299,.0105,
.229375,.017429,
.227576,.024147,
.224638,.030451,
.220649,.036148,
.215732,.041067,
.210035,.045057,
.203732,.047997,
.197014,.049798,
.190086,.050405,
.19,.0504,
-.1901,.0496,
-.197029,.049092,
-.203748,.047295,
-.210052,.044359,
-.215752,.040372,
-.220672,.035456,
-.224664,.029761,
-.227606,.023459,
-.229409,.016742,
-.230019,.009814,
-.23,.0097,
-.2299,-.0105,
-.229375,-.017429,
-.227576,-.024147,
-.224638,-.030451,
-.220649,-.036148,
-.215732,-.041067,
-.210035,-.045057,
-.203732,-.047997,
-.197014,-.049798,
-.190086,-.050405,
-.19,-.0504,
0.0*
%
%ADD26MACRO26*%
%ADD29R,.7501X.7501*%
%ADD27R,.4572X1.3716*%
%ADD10R,.6096X1.5494*%
%ADD15R,1.05X1.1001*%
%ADD14R,1.1001X1.05*%
%ADD28R,1.35X1.1001*%
%ADD11R,2.4501X1.1501*%
%AMMACRO19*
4,1,44,.1901,.05,
-.1901,.05,
-.197029,.049444,
-.203747,.047644,
-.21005,.044704,
-.215747,.040715,
-.220665,.035797,
-.224654,.0301,
-.227594,.023797,
-.229394,.017079,
-.23,.01015,
-.23,.0101,
-.23,-.0101,
-.229402,-.017029,
-.227611,-.02375,
-.224679,-.030057,
-.220697,-.035759,
-.215786,-.040683,
-.210093,-.044679,
-.203794,-.047627,
-.197078,-.049435,
-.19015,-.05005,
-.1901,-.05,
.1901,-.05,
.197029,-.049444,
.203747,-.047644,
.21005,-.044704,
.215747,-.040715,
.220665,-.035797,
.224654,-.0301,
.227594,-.023797,
.229394,-.017079,
.23,-.01015,
.23,-.0101,
.23,.0101,
.229402,.017029,
.227611,.02375,
.224679,.030057,
.220697,.035759,
.215786,.040683,
.210093,.044679,
.203794,.047627,
.197078,.049435,
.19015,.05005,
.1901,.05,
0.0*
%
%ADD19MACRO19*%
%ADD18R,.889X.635*%
%ADD16R,.8499X.4501*%
%ADD17R,.4501X.8499*%
%ADD24R,.8999X.65*%
%ADD25R,.65X.8999*%
%LPD*%
G75*
G54D10*
X-2012000Y-2260000D03*
X-1912000D03*
G54D11*
X-1903000Y-1500000D03*
Y-1750000D03*
Y-1250000D03*
X-1353000Y-1500000D03*
Y-1750000D03*
Y-1250000D03*
G54D20*
X-828000Y-1330000D03*
Y-1140000D03*
X-548000D03*
Y-1235000D03*
Y-1330000D03*
G54D12*
X-2009500Y-737500D03*
X-1981000Y122000D03*
X-1994000Y650000D03*
X-1997000Y935000D03*
X-1998000Y1190000D03*
X-2000000Y1460000D03*
X-1912000Y-2104000D03*
X-1710000Y-946000D03*
X-1680000Y-676000D03*
Y-556000D03*
X-1748000Y-65000D03*
X-1720000Y144000D03*
X-1588000Y636000D03*
X-1560000Y892000D03*
X-1675500Y1819500D03*
X-1548000Y1572000D03*
X-1280000Y-2056000D03*
X-1156000Y-1935000D03*
X-1363000Y-785000D03*
X-1280000Y-388000D03*
X-1200000Y-300000D03*
X-1456000Y490000D03*
X-1176000Y1148000D03*
X-1394000Y1162000D03*
X-1264000Y1240000D03*
X-1242000Y2166000D03*
X-1051000Y-2467000D03*
X-924000Y-2468000D03*
X-670000Y-2470000D03*
X-722000Y-1885000D03*
X-974000Y-1882000D03*
X-844000Y-1670000D03*
X-1072000Y-1420000D03*
X-974000Y-1372000D03*
X-882500Y-745500D03*
X-844000Y-988000D03*
X-874500Y-310500D03*
X-1037000Y-605000D03*
X-865000D03*
X-744000Y88000D03*
X-722000Y-172000D03*
X-701000Y528000D03*
X-1002000Y502000D03*
X-948000Y964000D03*
X-824000D03*
X-700000D03*
X-948000Y844000D03*
X-816000Y840000D03*
X-696000D03*
X-952000Y1220000D03*
X-824000D03*
X-700000Y1224000D03*
X-948000Y1092000D03*
X-820000D03*
X-696000Y1096000D03*
X-1071290Y1848000D03*
X-808000Y2212000D03*
X-508000Y-1960000D03*
X-633000Y-2085000D03*
X-596000Y-1872000D03*
X-429000Y-1235000D03*
X-461500Y-745500D03*
Y-310500D03*
X-376000Y-276000D03*
X-584000Y88000D03*
X-532000Y-172000D03*
X-428000Y528000D03*
X-466000Y398000D03*
X-568000Y964000D03*
Y836000D03*
X-308000Y665000D03*
X-568000Y1224000D03*
X-572000Y1092000D03*
X-248000Y1852000D03*
X-296000Y2020000D03*
X-371510Y2364000D03*
X74000Y-2054000D03*
X184000Y-1700000D03*
X112000Y-1525000D03*
Y-1296000D03*
X22000Y-1278000D03*
X-188000Y-1488000D03*
X183500Y617500D03*
X108000Y800000D03*
Y960000D03*
X-42000Y648000D03*
X104000Y1124000D03*
X96000Y1364000D03*
X188000Y1324000D03*
Y1113000D03*
X-148000Y1652000D03*
X102000Y2122000D03*
G54D21*
X-760000Y1032000D03*
G54D22*
X-735000Y692000D03*
X-785000D03*
X-835000D03*
X-885000D03*
X-935000D03*
X-985000D03*
X-1035000D03*
Y1372000D03*
X-985000D03*
X-935000D03*
X-885000D03*
X-835000D03*
X-785000D03*
X-735000D03*
X-485000Y692000D03*
X-535000D03*
X-585000D03*
X-635000D03*
X-685000D03*
Y1372000D03*
X-635000D03*
X-585000D03*
X-535000D03*
X-485000D03*
G54D13*
X-2009500Y-617500D03*
Y-182500D03*
X-1809500Y-617500D03*
X-1859500D03*
X-1909500D03*
X-1959500D03*
Y-182500D03*
X-1909500D03*
X-1859500D03*
X-1809500D03*
X-719500Y-745500D03*
X-769500D03*
Y-310500D03*
X-719500D03*
X-569500Y-745500D03*
X-619500D03*
X-669500D03*
Y-310500D03*
X-619500D03*
X-569500D03*
G54D14*
X-1994000Y335000D03*
X-1814000D03*
X-1882000Y935000D03*
X-1702000D03*
X-1882000Y650000D03*
X-1702000D03*
X-1882000Y1460000D03*
X-1702000D03*
X-1882000Y1190000D03*
X-1702000D03*
X-1458000Y636000D03*
X-1278000D03*
X-1458000Y800000D03*
X-1278000D03*
X-766000Y-24000D03*
X-586000D03*
X-222000Y1364000D03*
X-278000Y1652000D03*
X-458000D03*
X-398000Y2020000D03*
X-578000D03*
X-158000Y-164000D03*
X22000D03*
X-22000Y960000D03*
X-202000D03*
X-22000Y800000D03*
X-202000D03*
X-22000Y1124000D03*
X-202000D03*
X-42000Y1364000D03*
G54D23*
X-741000Y1625000D03*
X-891000D03*
G54D24*
X-376000Y132500D03*
Y267500D03*
X-580000Y1516500D03*
Y1651500D03*
Y1887500D03*
Y1752500D03*
G54D15*
X-1532000Y-946000D03*
Y-766000D03*
X-1160000Y-785000D03*
Y-605000D03*
X-1076000Y1986000D03*
Y2166000D03*
X-1072000Y-1570000D03*
Y-1750000D03*
X-744000Y218000D03*
Y398000D03*
X-808000Y1930000D03*
X-1036000Y1735000D03*
Y1555000D03*
X-808000Y2110000D03*
X-596000Y-1762000D03*
Y-1582000D03*
X-584000Y218000D03*
X-376000Y-165000D03*
Y15000D03*
X-584000Y398000D03*
X-580000Y2338000D03*
Y2158000D03*
G54D25*
X-263500Y448000D03*
X-128500D03*
G54D16*
X-1680000Y-471000D03*
Y-321000D03*
X-284000Y-1235000D03*
Y-1385000D03*
G54D17*
X-1691000Y420000D03*
X-1541000D03*
X23000Y20000D03*
X-127000D03*
X217000Y-1296000D03*
X367000D03*
G54D26*
X-420000Y1007000D03*
Y957000D03*
Y907000D03*
Y857000D03*
Y807000D03*
Y757000D03*
Y1307000D03*
Y1257000D03*
Y1207000D03*
Y1157000D03*
Y1107000D03*
Y1057000D03*
G54D18*
X-1178000Y-2243800D03*
Y-2370800D03*
X-670000Y-2243800D03*
X-797000D03*
X-924000D03*
X-1051000D03*
X-670000Y-2370800D03*
X-797000D03*
X-924000D03*
X-1051000D03*
G54D27*
X74000Y-2256360D03*
X139000D03*
X204000D03*
X269000D03*
X334000D03*
G54D19*
X-1100000Y757000D03*
Y807000D03*
Y857000D03*
Y907000D03*
Y957000D03*
Y1007000D03*
Y1057000D03*
Y1107000D03*
Y1157000D03*
Y1207000D03*
Y1257000D03*
Y1307000D03*
G54D28*
X-118000Y1852000D03*
X102000D03*
Y2012000D03*
X-118000D03*
G54D29*
X317500Y-1735000D03*
X482500D03*
X313500Y-1052000D03*
X478500D03*
M02*
