G04 ================== begin FILE IDENTIFICATION RECORD ==================*
G04 Layout Name:  C:/Users/FEDERICO/Desktop/PAR.MA/Orcad/allegro/PARTICULATEMATTER.brd*
G04 Film Name:    SM_BOT*
G04 File Format:  Gerber RS274X*
G04 File Origin:  Cadence Allegro 17.2-P019*
G04 Origin Date:  Thu Jan 16 16:17:46 2020*
G04 *
G04 Layer:  VIA CLASS/SOLDERMASK_BOTTOM*
G04 Layer:  PIN/SOLDERMASK_BOTTOM*
G04 Layer:  PACKAGE GEOMETRY/SOLDERMASK_BOTTOM*
G04 Layer:  BOARD GEOMETRY/SOLDERMASK_BOTTOM*
G04 Layer:  BOARD GEOMETRY/DESIGN_OUTLINE*
G04 *
G04 Offset:    (0.0000 0.0000)*
G04 Mirror:    No*
G04 Mode:      Positive*
G04 Rotation:  0*
G04 FullContactRelief:  No*
G04 UndefLineWidth:     0.0000*
G04 ================== end FILE IDENTIFICATION RECORD ====================*
%FSLAX25Y25*MOMM*%
%IR0*IPPOS*OFA0.00000B0.00000*MIA0B0*SFA1.00000B1.00000*%
%ADD10C,.65*%
%LPD*%
G75*
G54D10*
X-2009500Y-737500D03*
X-1981000Y122000D03*
X-1994000Y650000D03*
X-1997000Y935000D03*
X-1998000Y1190000D03*
X-2000000Y1460000D03*
X-1912000Y-2104000D03*
X-1710000Y-946000D03*
X-1680000Y-676000D03*
Y-556000D03*
X-1748000Y-65000D03*
X-1720000Y144000D03*
X-1588000Y636000D03*
X-1560000Y892000D03*
X-1675500Y1819500D03*
X-1548000Y1572000D03*
X-1280000Y-2056000D03*
X-1156000Y-1935000D03*
X-1363000Y-785000D03*
X-1280000Y-388000D03*
X-1200000Y-300000D03*
X-1456000Y490000D03*
X-1176000Y1148000D03*
X-1394000Y1162000D03*
X-1264000Y1240000D03*
X-1242000Y2166000D03*
X-1051000Y-2467000D03*
X-924000Y-2468000D03*
X-670000Y-2470000D03*
X-722000Y-1885000D03*
X-974000Y-1882000D03*
X-844000Y-1670000D03*
X-1072000Y-1420000D03*
X-974000Y-1372000D03*
X-882500Y-745500D03*
X-844000Y-988000D03*
X-874500Y-310500D03*
X-1037000Y-605000D03*
X-865000D03*
X-744000Y88000D03*
X-722000Y-172000D03*
X-701000Y528000D03*
X-1002000Y502000D03*
X-948000Y964000D03*
X-824000D03*
X-700000D03*
X-948000Y844000D03*
X-816000Y840000D03*
X-696000D03*
X-952000Y1220000D03*
X-824000D03*
X-700000Y1224000D03*
X-948000Y1092000D03*
X-820000D03*
X-696000Y1096000D03*
X-1071290Y1848000D03*
X-808000Y2212000D03*
X-508000Y-1960000D03*
X-633000Y-2085000D03*
X-596000Y-1872000D03*
X-429000Y-1235000D03*
X-461500Y-745500D03*
Y-310500D03*
X-376000Y-276000D03*
X-584000Y88000D03*
X-532000Y-172000D03*
X-428000Y528000D03*
X-466000Y398000D03*
X-568000Y964000D03*
Y836000D03*
X-308000Y665000D03*
X-568000Y1224000D03*
X-572000Y1092000D03*
X-248000Y1852000D03*
X-296000Y2020000D03*
X-371510Y2364000D03*
X74000Y-2054000D03*
X184000Y-1700000D03*
X112000Y-1525000D03*
Y-1296000D03*
X22000Y-1278000D03*
X-188000Y-1488000D03*
X183500Y617500D03*
X108000Y800000D03*
Y960000D03*
X-42000Y648000D03*
X104000Y1124000D03*
X96000Y1364000D03*
X188000Y1324000D03*
Y1113000D03*
X-148000Y1652000D03*
X102000Y2122000D03*
M02*
