G04 ================== begin FILE IDENTIFICATION RECORD ==================*
G04 Layout Name:  C:/Users/FEDERICO/Desktop/PAR.MA/Orcad/allegro/PARTICULATEMATTER.brd*
G04 Film Name:    TOP*
G04 File Format:  Gerber RS274X*
G04 File Origin:  Cadence Allegro 17.2-P019*
G04 Origin Date:  Thu Jan 16 16:17:45 2020*
G04 *
G04 Layer:  BOARD GEOMETRY/DESIGN_OUTLINE*
G04 Layer:  ETCH/TOP*
G04 Layer:  PIN/TOP*
G04 Layer:  VIA CLASS/TOP*
G04 *
G04 Offset:    (0.0000 0.0000)*
G04 Mirror:    No*
G04 Mode:      Positive*
G04 Rotation:  0*
G04 FullContactRelief:  No*
G04 UndefLineWidth:     0.0000*
G04 ================== end FILE IDENTIFICATION RECORD ====================*
%FSLAX25Y25*MOMM*%
%IR0*IPPOS*OFA0.00000B0.00000*MIA0B0*SFA1.00000B1.00000*%
%ADD24R,.7X1.4*%
%ADD12C,.6*%
%ADD18C,.7*%
%ADD19R,1.016X.762*%
%ADD28R,.5001X.5001*%
%ADD32R,.8001X.8001*%
%ADD13R,.2799X1.4*%
%ADD21R,1.1999X.5001*%
%ADD30R,.4572X1.3716*%
%ADD10R,.6096X1.5494*%
%AMMACRO23*
4,1,44,.12,-.26,
.12,.26,
.119402,.266929,
.117611,.27365,
.114679,.279957,
.110697,.285659,
.105786,.290583,
.100093,.294579,
.093794,.297527,
.087078,.299335,
.08015,.29995,
.0801,.2999,
-.0801,.2999,
-.087029,.299344,
-.093747,.297544,
-.10005,.294604,
-.105747,.290615,
-.110665,.285697,
-.114654,.28,
-.117594,.273697,
-.119394,.266979,
-.12,.26005,
-.12,.26,
-.12,-.26,
-.119402,-.266929,
-.117611,-.27365,
-.114679,-.279957,
-.110697,-.285659,
-.105786,-.290583,
-.100093,-.294579,
-.093794,-.297527,
-.087078,-.299335,
-.08015,-.29995,
-.0801,-.2999,
.0801,-.2999,
.087029,-.299344,
.093747,-.297544,
.10005,-.294604,
.105747,-.290615,
.110665,-.285697,
.114654,-.28,
.117594,-.273697,
.119394,-.266979,
.12,-.26005,
.12,-.26,
0.0*
%
%ADD23MACRO23*%
%AMMACRO27*
4,1,44,-.2598,-.1204,
.2602,-.1195,
.267129,-.118908,
.273847,-.117108,
.28015,-.114168,
.285847,-.110179,
.290765,-.105261,
.294754,-.099563,
.297693,-.09326,
.299493,-.086542,
.300099,-.079613,
.3,-.0795,
.2997,.0806,
.299191,.087528,
.297389,.094246,
.294447,.100548,
.290456,.106244,
.285536,.11116,
.279837,.115147,
.273533,.118084,
.266814,.119882,
.259885,.120486,
.2598,.1204,
-.2602,.1195,
-.267129,.118908,
-.273847,.117108,
-.28015,.114168,
-.285847,.110179,
-.290765,.105261,
-.294754,.099563,
-.297693,.09326,
-.299493,.086542,
-.300099,.079613,
-.3,.0795,
-.2997,-.0806,
-.299191,-.087528,
-.297389,-.094246,
-.294447,-.100548,
-.290456,-.106244,
-.285536,-.11116,
-.279837,-.115147,
-.273533,-.118084,
-.266814,-.119882,
-.259885,-.120486,
-.2598,-.1204,
0.0*
%
%ADD27MACRO27*%
%ADD15R,1.1001X1.1501*%
%ADD14R,1.1501X1.1001*%
%ADD31R,1.4X1.1501*%
%ADD25R,.95X.7*%
%ADD26R,.7X.95*%
%AMMACRO22*
4,1,44,2.75,-2.5501,
2.75,2.5501,
2.747022,2.584813,
2.738012,2.618473,
2.723293,2.650057,
2.703314,2.678605,
2.678682,2.70325,
2.650143,2.723243,
2.618567,2.737977,
2.584912,2.747004,
2.5502,2.75005,
2.5501,2.75,
-2.5501,2.75,
-2.584813,2.747022,
-2.618473,2.738012,
-2.650057,2.723293,
-2.678605,2.703314,
-2.70325,2.678682,
-2.723243,2.650143,
-2.737977,2.618567,
-2.747004,2.584912,
-2.75005,2.5502,
-2.75,2.5501,
-2.75,-2.5501,
-2.747022,-2.584813,
-2.738012,-2.618473,
-2.723293,-2.650057,
-2.703314,-2.678605,
-2.678682,-2.70325,
-2.650143,-2.723243,
-2.618567,-2.737977,
-2.584912,-2.747004,
-2.5502,-2.75005,
-2.5501,-2.75,
2.5501,-2.75,
2.584813,-2.747022,
2.618473,-2.738012,
2.650057,-2.723293,
2.678605,-2.703314,
2.70325,-2.678682,
2.723243,-2.650143,
2.737977,-2.618567,
2.747004,-2.584912,
2.75005,-2.5502,
2.75,-2.5501,
0.0*
%
%ADD22MACRO22*%
%ADD11R,2.5001X1.1999*%
%ADD16R,.8999X.5001*%
%ADD29R,.8999X.5001*%
%ADD17R,.5001X.8999*%
%AMMACRO20*
4,1,44,.26,.12,
-.26,.12,
-.266929,.119402,
-.27365,.117611,
-.279957,.114679,
-.285659,.110697,
-.290583,.105786,
-.294579,.100093,
-.297527,.093794,
-.299335,.087078,
-.29995,.08015,
-.2999,.0801,
-.2999,-.0801,
-.299344,-.087029,
-.297544,-.093747,
-.294604,-.10005,
-.290615,-.105747,
-.285697,-.110665,
-.28,-.114654,
-.273697,-.117594,
-.266979,-.119394,
-.26005,-.12,
-.26,-.12,
.26,-.12,
.266929,-.119402,
.27365,-.117611,
.279957,-.114679,
.285659,-.110697,
.290583,-.105786,
.294579,-.100093,
.297527,-.093794,
.299335,-.087078,
.29995,-.08015,
.2999,-.0801,
.2999,.0801,
.299344,.087029,
.297544,.093747,
.294604,.10005,
.290615,.105747,
.285697,.110665,
.28,.114654,
.273697,.117594,
.266979,.119394,
.26005,.12,
.26,.12,
0.0*
%
%ADD20MACRO20*%
%ADD33C,.15*%
G75*
%LPD*%
G75*
G36*
G01X-416510Y2410510D02*
Y2900510D01*
X-556510D01*
Y2410510D01*
X-606510D01*
Y2900510D01*
X-776510D01*
Y2636510D01*
X-1076510D01*
Y2900510D01*
X-1246510D01*
Y2636510D01*
X-1546510D01*
Y2900510D01*
X-1716510D01*
Y2636510D01*
X-1766510D01*
Y2950510D01*
X-1496510D01*
Y2686510D01*
X-1296510D01*
Y2950510D01*
X-1026510D01*
Y2686510D01*
X-826510D01*
Y2950510D01*
X-326510D01*
Y2410510D01*
X-416510D01*
G37*
G36*
G01X-1766510Y2506510D02*
Y2636510D01*
X-1716510D01*
Y2506510D01*
X-1766510D01*
G37*
G54D10*
X-2012000Y-2260000D03*
X-1912000D03*
G54D20*
X-1100000Y757000D03*
Y807000D03*
Y857000D03*
Y907000D03*
Y957000D03*
Y1007000D03*
Y1057000D03*
Y1107000D03*
Y1157000D03*
Y1207000D03*
Y1257000D03*
Y1307000D03*
G54D11*
X-1903000Y-1500000D03*
Y-1750000D03*
Y-1250000D03*
X-1353000Y-1500000D03*
Y-1750000D03*
Y-1250000D03*
G54D30*
X74000Y-2256360D03*
X139000D03*
X204000D03*
X269000D03*
X334000D03*
G54D21*
X-828000Y-1330000D03*
Y-1140000D03*
X-548000D03*
Y-1235000D03*
Y-1330000D03*
G54D12*
X-2009500Y-737500D03*
X-1981000Y122000D03*
X-1994000Y650000D03*
X-1997000Y935000D03*
X-1998000Y1190000D03*
X-2000000Y1460000D03*
X-1912000Y-2104000D03*
X-1710000Y-946000D03*
X-1680000Y-676000D03*
Y-556000D03*
X-1748000Y-65000D03*
X-1720000Y144000D03*
X-1588000Y636000D03*
X-1560000Y892000D03*
X-1675500Y1819500D03*
X-1548000Y1572000D03*
X-1280000Y-2056000D03*
X-1156000Y-1935000D03*
X-1363000Y-785000D03*
X-1280000Y-388000D03*
X-1200000Y-300000D03*
X-1456000Y490000D03*
X-1176000Y1148000D03*
X-1394000Y1162000D03*
X-1264000Y1240000D03*
X-1242000Y2166000D03*
X-1051000Y-2467000D03*
X-924000Y-2468000D03*
X-670000Y-2470000D03*
X-722000Y-1885000D03*
X-974000Y-1882000D03*
X-844000Y-1670000D03*
X-1072000Y-1420000D03*
X-974000Y-1372000D03*
X-882500Y-745500D03*
X-844000Y-988000D03*
X-874500Y-310500D03*
X-1037000Y-605000D03*
X-865000D03*
X-744000Y88000D03*
X-722000Y-172000D03*
X-701000Y528000D03*
X-1002000Y502000D03*
X-948000Y964000D03*
X-824000D03*
X-700000D03*
X-948000Y844000D03*
X-816000Y840000D03*
X-696000D03*
X-952000Y1220000D03*
X-824000D03*
X-700000Y1224000D03*
X-948000Y1092000D03*
X-820000D03*
X-696000Y1096000D03*
X-1071290Y1848000D03*
X-808000Y2212000D03*
X-508000Y-1960000D03*
X-633000Y-2085000D03*
X-596000Y-1872000D03*
X-429000Y-1235000D03*
X-461500Y-745500D03*
Y-310500D03*
X-376000Y-276000D03*
X-584000Y88000D03*
X-532000Y-172000D03*
X-428000Y528000D03*
X-466000Y398000D03*
X-568000Y964000D03*
Y836000D03*
X-308000Y665000D03*
X-568000Y1224000D03*
X-572000Y1092000D03*
X-248000Y1852000D03*
X-296000Y2020000D03*
X-371510Y2364000D03*
X74000Y-2054000D03*
X184000Y-1700000D03*
X112000Y-1525000D03*
Y-1296000D03*
X22000Y-1278000D03*
X-188000Y-1488000D03*
X183500Y617500D03*
X108000Y800000D03*
Y960000D03*
X-42000Y648000D03*
X104000Y1124000D03*
X96000Y1364000D03*
X188000Y1324000D03*
Y1113000D03*
X-148000Y1652000D03*
X102000Y2122000D03*
G54D22*
X-760000Y1032000D03*
G54D31*
X-118000Y1852000D03*
X102000D03*
Y2012000D03*
X-118000D03*
G54D13*
X-2009500Y-617500D03*
Y-182500D03*
X-1809500Y-617500D03*
X-1859500D03*
X-1909500D03*
X-1959500D03*
Y-182500D03*
X-1909500D03*
X-1859500D03*
X-1809500D03*
X-719500Y-745500D03*
X-769500D03*
Y-310500D03*
X-719500D03*
X-569500Y-745500D03*
X-619500D03*
X-669500D03*
Y-310500D03*
X-619500D03*
X-569500D03*
G54D14*
X-1994000Y335000D03*
X-1814000D03*
X-1882000Y935000D03*
X-1702000D03*
X-1882000Y650000D03*
X-1702000D03*
X-1882000Y1460000D03*
X-1702000D03*
X-1882000Y1190000D03*
X-1702000D03*
X-1458000Y636000D03*
X-1278000D03*
X-1458000Y800000D03*
X-1278000D03*
X-766000Y-24000D03*
X-586000D03*
X-222000Y1364000D03*
X-278000Y1652000D03*
X-458000D03*
X-398000Y2020000D03*
X-578000D03*
X-158000Y-164000D03*
X22000D03*
X-22000Y960000D03*
X-202000D03*
X-22000Y800000D03*
X-202000D03*
X-22000Y1124000D03*
X-202000D03*
X-42000Y1364000D03*
G54D23*
X-735000Y692000D03*
X-785000D03*
X-835000D03*
X-885000D03*
X-935000D03*
X-985000D03*
X-1035000D03*
Y1372000D03*
X-985000D03*
X-935000D03*
X-885000D03*
X-835000D03*
X-785000D03*
X-735000D03*
X-485000Y692000D03*
X-535000D03*
X-585000D03*
X-635000D03*
X-685000D03*
Y1372000D03*
X-635000D03*
X-585000D03*
X-535000D03*
X-485000D03*
G54D32*
X317500Y-1735000D03*
X482500D03*
X313500Y-1052000D03*
X478500D03*
G54D33*
G01X-2012000Y-2260000D02*
Y-2036000D01*
X-1903000Y-1927000D01*
Y-1750000D01*
G01Y-1500000D02*
X-1968010D01*
X-2050510Y-1417500D01*
Y-1180690D01*
X-1909500Y-1039680D01*
Y-617500D01*
G01X-2009500D02*
Y-737500D01*
G01X-1959500Y-182500D02*
Y-272700D01*
X-1986800Y-300000D01*
X-2080000D01*
X-2096000Y-284000D01*
Y452000D01*
X-2040000Y508000D01*
X-1760000D01*
X-1702000Y566000D01*
Y650000D01*
G01X-1981000Y122000D02*
Y-63800D01*
X-2009500Y-92300D01*
Y-182500D01*
G01X-1909500D02*
Y253000D01*
X-1991500Y335000D01*
X-1994000D01*
G01X-1882000Y650000D02*
X-1994000D01*
G01X-1882000Y935000D02*
X-1997000D01*
G01X-1882000Y1190000D02*
X-1998000D01*
G01X-1882000Y1460000D02*
X-2000000D01*
G01X-1912000Y-2260000D02*
Y-2104000D01*
G01X-1903000Y-1750000D02*
X-1353000D01*
G01X-1903000Y-1500000D02*
X-1353000D01*
G01X-1532000Y-946000D02*
X-1710000D01*
G01X-1532000Y-766000D02*
X-1801200D01*
X-1859500Y-707700D01*
Y-617500D01*
G01X-1809500D02*
X-1738500D01*
X-1680000Y-676000D01*
G01Y-471000D02*
Y-556000D01*
G01X-1959500Y-617500D02*
X-1909500D01*
G01D02*
X-1859500D01*
G01X-1680000Y-321000D02*
Y104000D01*
X-1720000Y144000D01*
G01X-1809500Y-182500D02*
Y-126500D01*
X-1748000Y-65000D01*
G01X-1720000Y144000D02*
X-1691000Y173000D01*
Y420000D01*
G01X-1814000Y335000D02*
Y-46800D01*
X-1859500Y-92300D01*
Y-182500D01*
G01X-1541000Y420000D02*
Y491500D01*
X-1699500Y650000D01*
X-1702000D01*
G01X-1294000Y1819500D02*
X-1351500Y1877000D01*
X-1571830D01*
X-1605500Y1843330D01*
Y1417500D01*
X-1606000Y1417000D01*
Y1050000D01*
X-1463000Y907000D01*
X-1100000D01*
G01X-1458000Y636000D02*
X-1588000D01*
G01X-1560000Y892000D02*
X-1552500D01*
X-1460500Y800000D01*
X-1458000D01*
G01X-1702000Y650000D02*
Y935000D01*
G01D02*
Y1190000D01*
G01Y1460000D02*
Y1592500D01*
X-1802000Y1692500D01*
G01X-1702000Y1190000D02*
Y1460000D01*
G01X-1802000Y1819500D02*
X-1868000Y1753500D01*
Y1623500D01*
X-1704500Y1460000D01*
X-1702000D01*
G01X-1421000Y1692500D02*
Y1547000D01*
X-1572000Y1396000D01*
Y1080000D01*
X-1449000Y957000D01*
X-1100000D01*
G01X-1675000Y1819500D02*
X-1675500D01*
G01X-1178000Y-2370800D02*
Y-2498000D01*
X-1128000Y-2548000D01*
X-528000D01*
X-444000Y-2464000D01*
Y-2163000D01*
X-722000Y-1885000D01*
G01X-1178000Y-2243800D02*
X-1252200D01*
X-1280000Y-2216000D01*
Y-2056000D01*
G01X-1072000Y-1750000D02*
X-1353000D01*
G01X-1156000Y-1935000D02*
X-1051000Y-2040000D01*
Y-2243800D01*
G01X-1160000Y-785000D02*
X-1363000D01*
G01X-1532000Y-766000D02*
X-1418250D01*
X-1257250Y-605000D01*
X-1160000D01*
G01D02*
X-1037000D01*
G01X-1280000Y-388000D02*
Y216000D01*
X-1204000Y292000D01*
X-1120000D01*
X-949500Y462500D01*
Y533500D01*
X-1100000Y684000D01*
Y757000D01*
G01X-1200000Y-300000D02*
Y160000D01*
X-919500Y440500D01*
Y547500D01*
X-1035000Y663000D01*
Y692000D01*
G01X-1002000Y502000D02*
X-1393800D01*
X-1405800Y490000D01*
X-1456000D01*
G01X-1278000Y800000D02*
X-1280500D01*
X-1364000Y716500D01*
Y442780D01*
X-1418780Y388000D01*
X-1440000D01*
X-1456000Y404000D01*
Y490000D01*
G01X-1100000Y807000D02*
X-1145000D01*
X-1192000Y760000D01*
Y719500D01*
X-1275500Y636000D01*
X-1278000D01*
G01X-1294000Y1692500D02*
Y1618000D01*
X-1528000Y1384000D01*
Y1104000D01*
X-1431000Y1007000D01*
X-1100000D01*
G01Y857000D02*
X-1150200D01*
X-1159200Y848000D01*
X-1212000D01*
X-1260000Y800000D01*
X-1278000D01*
G01X-1176000Y1148000D02*
Y1128000D01*
X-1155000Y1107000D01*
X-1100000D01*
G01X-1394000Y1162000D02*
X-1289000Y1057000D01*
X-1100000D01*
G01X-1264000Y1240000D02*
X-1197000Y1307000D01*
X-1100000D01*
G01X-1548000Y1692500D02*
Y1572000D01*
G01X-1076000Y2166000D02*
X-1242000D01*
G01X-1051000Y-2370800D02*
Y-2467000D01*
G01X-924000Y-2370800D02*
Y-2468000D01*
G01X-974000Y-1882000D02*
X-924000Y-1932000D01*
Y-2243800D01*
G01X-797000D02*
Y-1959000D01*
X-844000Y-1912000D01*
Y-1670000D01*
G01X-1072000Y-1570000D02*
Y-1420000D01*
G01Y-1750000D02*
Y-1747500D01*
X-828000Y-1503500D01*
Y-1330000D01*
G01X-974000Y-1372000D02*
Y266000D01*
X-888000Y352000D01*
Y560000D01*
X-985000Y657000D01*
Y692000D01*
G01X-769500Y-745500D02*
X-882500D01*
G01X-669500D02*
X-719500D01*
G01X-844000Y-988000D02*
Y-932000D01*
X-935000Y-841000D01*
Y229000D01*
X-852000Y312000D01*
Y568000D01*
X-935000Y651000D01*
Y692000D01*
G01X-769500Y-310500D02*
X-874500D01*
G01X-865000Y-605000D02*
X-479000D01*
X-396000Y-688000D01*
Y-808000D01*
X-444000Y-856000D01*
X-649200D01*
X-669500Y-835700D01*
Y-745500D01*
G01X-722000Y-172000D02*
Y-308000D01*
X-719500Y-310500D01*
G01X-744000Y218000D02*
Y88000D01*
G01X-766000Y-24000D02*
X-763500D01*
X-669500Y-118000D01*
Y-310500D01*
G01X-701000Y528000D02*
X-635000Y594000D01*
Y692000D01*
G01X-744000Y398000D02*
X-584000D01*
G01X-891000Y1625000D02*
Y1534800D01*
X-780700Y1424500D01*
X-674280D01*
X-665980Y1424490D01*
X-635000Y1393500D01*
Y1372000D01*
G01X-1100000Y1307000D02*
Y1404000D01*
X-1036000Y1468000D01*
Y1555000D01*
G01Y1735000D02*
Y1812710D01*
X-1071290Y1848000D01*
G01X-741000Y1625000D02*
Y1534800D01*
X-670200Y1464000D01*
X-644000D01*
X-585000Y1405000D01*
Y1372000D01*
G01X-808000Y1930000D02*
Y1727000D01*
X-741000Y1660000D01*
Y1625000D01*
G01X-891000D02*
Y1798500D01*
X-1076000Y1983500D01*
Y1986000D01*
G01X-808000Y2110000D02*
Y2212000D01*
G01X-670000Y-2370800D02*
Y-2470000D01*
G01X-633000Y-2085000D02*
X-670000Y-2122000D01*
Y-2243800D01*
G01X-596000Y-1582000D02*
Y-1423210D01*
X-548000Y-1375210D01*
Y-1330000D01*
G01X-596000Y-1762000D02*
Y-1872000D01*
G01X-508000Y-1960000D02*
X-394000Y-1846000D01*
Y-1694000D01*
X-188000Y-1488000D01*
G01X-548000Y-1330000D02*
X-83000D01*
X112000Y-1525000D01*
G01X-284000Y-1235000D02*
Y-1191790D01*
X-335790Y-1140000D01*
X-548000D01*
G01Y-1235000D02*
X-429000D01*
G01X-284000Y-1385000D02*
X-183000D01*
X68000Y-1636000D01*
X443710D01*
X482500Y-1674790D01*
Y-1735000D01*
G01X-569500Y-745500D02*
X-461500D01*
G01X-669500D02*
X-619500D01*
G01X-569500Y-310500D02*
X-461500D01*
G01X-376000Y-165000D02*
Y-276000D01*
G01X-619500Y-310500D02*
Y-132710D01*
X-586000Y-99210D01*
Y-24000D01*
G01X-584000Y218000D02*
Y88000D01*
G01X-158000Y-164000D02*
X-299790D01*
X-300790Y-165000D01*
X-376000D01*
G01Y15000D02*
Y132500D01*
G01X-532000Y-172000D02*
X-496000Y-136000D01*
Y-107500D01*
X-376000Y12500D01*
Y15000D01*
G01X23000Y20000D02*
Y151000D01*
X24000Y152000D01*
Y160000D01*
X-152000Y336000D01*
X-320000D01*
X-535000Y551000D01*
Y692000D01*
G01X-428000Y528000D02*
X-348000Y448000D01*
X-263500D01*
G01X-584000Y398000D02*
Y395500D01*
X-456000Y267500D01*
X-376000D01*
G01X-585000Y692000D02*
Y641800D01*
X-584000Y640800D01*
Y398000D01*
G01D02*
X-466000D01*
G01X-376000Y267500D02*
X-259500D01*
X-127000Y135000D01*
Y20000D01*
G01X-420000Y1107000D02*
X-369800Y1107090D01*
X-332000Y1069290D01*
Y1048000D01*
X-292000Y1008000D01*
Y887500D01*
X-204500Y800000D01*
G01X-308000Y665000D02*
Y771710D01*
X-279710Y800000D01*
X-204500D01*
G01X102000Y1852000D02*
Y1698000D01*
X276000Y1524000D01*
Y1295320D01*
X187770Y1207090D01*
X-369800D01*
X-420000Y1207000D01*
G01X-118000Y2012000D02*
X-105510D01*
X-27000Y1933490D01*
Y1928000D01*
X-12000Y1913000D01*
Y1764000D01*
X244000Y1508000D01*
Y1305750D01*
X195340Y1257090D01*
X-369800D01*
X-420000Y1257000D01*
G01X-485000Y1372000D02*
Y1549790D01*
X-458000Y1576790D01*
Y1652000D01*
G01X-535000Y1372000D02*
Y1471500D01*
X-580000Y1516500D01*
G01X-222000Y1364000D02*
X-304000D01*
X-361000Y1307000D01*
X-420000D01*
G01X188000Y1324000D02*
Y1360000D01*
X120000Y1428000D01*
Y1492000D01*
X72000Y1540000D01*
X-280000D01*
X-420000Y1400000D01*
Y1307000D01*
G01X-202000Y1124000D02*
X-328000D01*
X-361000Y1157000D01*
X-420000D01*
G01X-580000Y1887500D02*
Y1942790D01*
X-578000Y1944790D01*
Y2020000D01*
G01X-278000Y1652000D02*
X-148000D01*
G01X-580000Y1651500D02*
X-458500D01*
X-458000Y1652000D01*
G01X-580000Y1651500D02*
Y1752500D01*
G01X-578000Y2020000D02*
Y2156000D01*
X-580000Y2158000D01*
G01X-398000Y2020000D02*
X-296000D01*
G01X-580000Y2338000D02*
Y2434000D01*
X-581510Y2435510D01*
G01X-371510D02*
Y2364000D01*
G01X74000Y-2256360D02*
Y-2054000D01*
G01X217000Y-1296000D02*
X112000D01*
G01X22000Y-1278000D02*
Y-164000D01*
G01D02*
Y19000D01*
X23000Y20000D01*
G01X-128500Y448000D02*
X-76000D01*
X-36000Y488000D01*
Y556000D01*
X196000Y788000D01*
Y820000D01*
X138490Y877510D01*
X-117010D01*
X-199500Y960000D01*
X-202000D01*
G01X-22000Y800000D02*
X108000D01*
G01X-22000Y960000D02*
X108000D01*
G01X-202000D02*
Y1124000D01*
G01X-42000Y648000D02*
X-156000D01*
X-200000Y692000D01*
Y722790D01*
X-202000Y724790D01*
Y800000D01*
G01X-204500D02*
X-202000D01*
G01X-22000Y1124000D02*
X104000D01*
G01X-42000Y1364000D02*
X96000D01*
G01X188000Y1113000D02*
Y1062800D01*
X162710Y1037510D01*
X-113010D01*
X-199500Y1124000D01*
X-202000D01*
G01X-118000Y1852000D02*
X-248000D01*
G01X102000Y2012000D02*
Y2122000D01*
G01X184000Y-1700000D02*
Y-1940000D01*
X334000Y-2090000D01*
Y-2256360D01*
G01X317500Y-1735000D02*
X219000D01*
X184000Y-1700000D01*
G01X478500Y-1052000D02*
Y-1229710D01*
X412210Y-1296000D01*
X367000D01*
G01X183500Y617500D02*
Y-71500D01*
X184000Y-72000D01*
Y-922500D01*
X313500Y-1052000D01*
G01X3152360Y1611640D02*
X3152340D01*
G54D15*
X-1532000Y-946000D03*
Y-766000D03*
X-1160000Y-785000D03*
Y-605000D03*
X-1076000Y1986000D03*
Y2166000D03*
X-1072000Y-1570000D03*
Y-1750000D03*
X-744000Y218000D03*
Y398000D03*
X-808000Y1930000D03*
X-1036000Y1735000D03*
Y1555000D03*
X-808000Y2110000D03*
X-596000Y-1762000D03*
Y-1582000D03*
X-584000Y218000D03*
X-376000Y-165000D03*
Y15000D03*
X-584000Y398000D03*
X-580000Y2338000D03*
Y2158000D03*
G54D24*
X-741000Y1625000D03*
X-891000D03*
G54D16*
X-1680000Y-471000D03*
Y-321000D03*
X-284000Y-1235000D03*
Y-1385000D03*
G54D25*
X-376000Y132500D03*
Y267500D03*
X-580000Y1516500D03*
Y1651500D03*
Y1887500D03*
Y1752500D03*
G54D17*
X-1691000Y420000D03*
X-1541000D03*
X23000Y20000D03*
X-127000D03*
X217000Y-1296000D03*
X367000D03*
G54D26*
X-263500Y448000D03*
X-128500D03*
G54D27*
X-420000Y1007000D03*
Y957000D03*
Y907000D03*
Y857000D03*
Y807000D03*
Y757000D03*
Y1307000D03*
Y1257000D03*
Y1207000D03*
Y1157000D03*
Y1107000D03*
Y1057000D03*
G54D18*
X-1548000Y1819500D03*
X-1675000D03*
X-1802000D03*
X-1548000Y1692500D03*
X-1675000D03*
X-1802000D03*
X-1294000Y1819500D03*
X-1421000D03*
X-1294000Y1692500D03*
X-1421000D03*
G54D28*
X-581510Y2435510D03*
G54D19*
X-1178000Y-2243800D03*
Y-2370800D03*
X-670000Y-2243800D03*
X-797000D03*
X-924000D03*
X-1051000D03*
X-670000Y-2370800D03*
X-797000D03*
X-924000D03*
X-1051000D03*
G54D29*
X-371510Y2435510D03*
M02*
